<svg width="64" height="64" viewBox="0 0 64 64" fill="none" xmlns="http://www.w3.org/2000/svg">
  <defs>
    <linearGradient id="aaveGradient" x1="14" y1="10" x2="50" y2="54" gradientUnits="userSpaceOnUse">
      <stop offset="0" stop-color="#B6509E"/>
      <stop offset="1" stop-color="#2EBAC6"/>
    </linearGradient>
  </defs>
  <rect x="6" y="6" width="52" height="52" rx="18" fill="url(#aaveGradient)" fill-opacity="0.14"/>
  <path d="M31.997 15.5C34.76 15.5 36.963 17.241 38.602 20.189L46.592 34.587C47.364 35.978 47.75 37.329 47.75 38.64C47.75 40.693 46.657 42.073 44.47 42.781L45.426 46.182C45.566 46.681 45.636 47.15 45.636 47.589C45.636 49.553 44.32 50.536 41.688 50.536H40.708C38.724 50.536 37.431 49.644 36.829 47.858L35.77 44.678H28.217L27.182 47.858C26.604 49.644 25.322 50.536 23.338 50.536H22.287C19.655 50.536 18.339 49.553 18.339 47.589C18.339 47.15 18.409 46.681 18.549 46.182L19.505 42.781C17.341 42.073 16.26 40.693 16.26 38.64C16.26 37.329 16.645 35.978 17.418 34.587L25.408 20.189C27.047 17.241 29.243 15.5 31.997 15.5ZM31.997 24.238L24.348 38.113H30.717V31.942C30.717 31.062 31.143 30.622 31.997 30.622C32.869 30.622 33.305 31.062 33.305 31.942V38.113H39.645L31.997 24.238Z" fill="url(#aaveGradient)"/>
</svg>
